<?xml version="1.0" encoding="UTF-8" standalone="no"?>
<!-- Created with Inkscape (http://www.inkscape.org/) -->

<svg
   version="1.1"
   id="svg2"
   xml:space="preserve"
   width="533.33331"
   height="533.33331"
   viewBox="0 0 533.33331 533.33331"
   sodipodi:docname="favicon.svg"
   inkscape:version="1.1.1 (3bf5ae0d25, 2021-09-20)"
   xmlns:inkscape="http://www.inkscape.org/namespaces/inkscape"
   xmlns:sodipodi="http://sodipodi.sourceforge.net/DTD/sodipodi-0.dtd"
   xmlns="http://www.w3.org/2000/svg"
   xmlns:svg="http://www.w3.org/2000/svg"><defs
     id="defs6"><clipPath
       clipPathUnits="userSpaceOnUse"
       id="clipPath16"><path
         d="M 0,400 H 400 V 0 H 0 Z"
         id="path14" /></clipPath></defs><sodipodi:namedview
     id="namedview4"
     pagecolor="#ffffff"
     bordercolor="#666666"
     borderopacity="1.0"
     inkscape:pageshadow="2"
     inkscape:pageopacity="0.0"
     inkscape:pagecheckerboard="0"
     showgrid="false"
     inkscape:zoom="0.95625004"
     inkscape:cx="266.66666"
     inkscape:cy="266.66666"
     inkscape:window-width="1440"
     inkscape:window-height="838"
     inkscape:window-x="0"
     inkscape:window-y="0"
     inkscape:window-maximized="1"
     inkscape:current-layer="g8" /><g
     id="g8"
     inkscape:groupmode="layer"
     inkscape:label="logo"
     transform="matrix(1.3333333,0,0,-1.3333333,0,533.33333)"><g
       id="g10"><g
         id="g12"
         clip-path="url(#clipPath16)"><g
           id="g18"
           transform="translate(199.9999,389.5)"><path
             d="m 0,0 c -104.934,0 -190,-85.066 -190,-190 0,-2.14 0.048,-4.268 0.119,-6.39 3.231,93.809 80.285,168.868 174.881,168.868 96.65,0 175,-78.35 175,-175 0,-96.65 -78.35,-175 -175,-175 -8.63,0 -17.112,0.636 -25.408,1.843 C -27.384,-378.5 -13.868,-380 0,-380 c 104.934,0 190,85.066 190,190 C 190,-85.066 104.934,0 0,0"
             style="fill:#f16359;fill-opacity:1;fill-rule:nonzero;stroke:none"
             id="path20" /></g><g
           id="g22"
           transform="translate(333.0186,177.7888)"><path
             d="m 0,0 c 0,-88.366 -71.634,-160 -160,-160 -88.366,0 -160,71.634 -160,160 0,88.366 71.634,160 160,160 C -71.634,160 0,88.366 0,0"
             style="fill:#f16359;fill-opacity:1;fill-rule:nonzero;stroke:none"
             id="path24" /></g></g></g><text
       transform="matrix(1,0,0,-1,53.4077,98.0254)"
       style="font-variant:normal;font-weight:900;font-stretch:normal;font-size:198.208px;font-family:'Darkmode DarkmodeOff Black';-inkscape-font-specification:Darkmode-DarkmodeOffBlack;writing-mode:lr-tb;fill:#ffffff;fill-opacity:1;fill-rule:nonzero;stroke:none"
       id="text28"><tspan
         x="0 118.92486"
         y="0"
         sodipodi:role="line"
         id="tspan26">TS</tspan></text></g></svg>
